<?xml version="1.0" encoding="utf-8"?>
<!-- Generator: Adobe Illustrator 17.1.0, SVG Export Plug-In . SVG Version: 6.00 Build 0)  -->
<!DOCTYPE svg PUBLIC "-//W3C//DTD SVG 1.1//EN" "http://www.w3.org/Graphics/SVG/1.1/DTD/svg11.dtd">
<svg version="1.1" id="Layer_1" xmlns="http://www.w3.org/2000/svg" xmlns:xlink="http://www.w3.org/1999/xlink" x="0px" y="0px"
	 viewBox="-250 542 500 500" enable-background="new -250 542 500 500" xml:space="preserve">
<g>
	<path fill="#FF8040" d="M241.8,789.4c0,134.9-109.4,244.4-244.4,244.4s-238.1-109.3-238.1-244.4c0-67.5-10.6-160.1,33.7-204.4
		c44.3-44.3,136.9-33.7,204.4-33.7C132.3,551.3,241.8,654.5,241.8,789.4z"/>
	<path fill="#FFAA80" d="M17.2,619.1c107.3,0,194.3,82.8,194.3,190.1s-87,194.3-194.3,194.3s-190.1-86.9-190.1-194.3
		c0-53.7-3.5-123.2,31.7-158.4C-106,615.6-36.5,619.1,17.2,619.1z"/>
	<path fill="#FFD5BF" d="M37,687c79.6,0,144.2,62.5,144.2,142.1S116.6,973.3,37,973.3s-142.1-64.5-142.1-144.2
		c0-39.8,3.5-86.4,29.6-112.5C-49.4,690.5-2.8,687,37,687z"/>
	<circle fill="#FFFFFF" cx="56.8" cy="848.9" r="94.1"/>
</g>
</svg>
